<?xml version="1.0" standalone="no"?>
<!DOCTYPE svg PUBLIC "-//W3C//DTD SVG 20010904//EN"
 "http://www.w3.org/TR/2001/REC-SVG-20010904/DTD/svg10.dtd">
<svg version="1.0" xmlns="http://www.w3.org/2000/svg"
 width="2048.000000pt" height="2048.000000pt" viewBox="0 0 2048.000000 2048.000000"
 preserveAspectRatio="xMidYMid meet">
<metadata>
Created by potrace 1.11, written by Peter Selinger 2001-2013
</metadata>
<g transform="translate(0.000000,2048.000000) scale(0.100000,-0.100000)"
fill="#000000" stroke="none">
<path d="M9998 19355 c-2 -2 -66 -6 -143 -9 -77 -4 -162 -9 -190 -11 -96 -8
-247 -24 -300 -31 -60 -9 -83 -12 -155 -19 -36 -4 -74 -9 -85 -11 -11 -2 -40
-7 -65 -10 -64 -8 -77 -10 -255 -39 -88 -15 -169 -28 -180 -29 -33 -5 -95 -17
-200 -38 -55 -10 -111 -22 -125 -24 -14 -3 -101 -23 -195 -44 -146 -34 -224
-55 -414 -112 -220 -65 -772 -258 -896 -313 -16 -7 -69 -29 -118 -49 -541
-223 -1179 -576 -1685 -935 -52 -36 -104 -73 -116 -81 -340 -233 -955 -776
-1281 -1131 -192 -209 -245 -269 -381 -435 -169 -207 -351 -451 -545 -734 -62
-90 -228 -351 -273 -430 -20 -36 -41 -72 -46 -80 -97 -153 -360 -675 -445
-880 -15 -36 -36 -84 -46 -107 -10 -23 -42 -99 -69 -170 -28 -70 -55 -137 -60
-148 -35 -82 -124 -349 -230 -690 -24 -79 -114 -425 -140 -545 -27 -117 -29
-128 -35 -163 -3 -15 -12 -59 -20 -97 -8 -38 -17 -84 -20 -102 -3 -18 -12 -69
-20 -113 -8 -44 -17 -98 -20 -120 -4 -22 -10 -65 -15 -95 -5 -30 -12 -77 -16
-105 -3 -27 -8 -58 -10 -68 -2 -10 -8 -64 -14 -120 -6 -56 -13 -113 -15 -127
-2 -14 -6 -56 -9 -95 -4 -38 -9 -97 -12 -130 -2 -33 -7 -82 -9 -110 -26 -296
-25 -780 0 -1095 2 -25 7 -81 10 -125 4 -43 8 -82 10 -85 1 -3 6 -41 9 -85 4
-44 9 -96 11 -115 3 -19 7 -55 10 -80 10 -84 16 -135 20 -160 4 -25 34 -217
40 -255 25 -165 97 -519 147 -720 22 -88 41 -169 43 -179 3 -10 9 -33 15 -51
6 -18 12 -41 14 -51 14 -72 166 -547 225 -704 62 -162 95 -245 103 -255 4 -5
8 -15 8 -23 0 -7 9 -32 19 -55 10 -23 45 -100 76 -172 84 -190 331 -686 429
-861 210 -376 493 -795 779 -1154 57 -72 235 -288 247 -300 8 -9 40 -45 69
-80 57 -68 696 -709 767 -770 22 -19 67 -57 99 -85 32 -27 75 -64 94 -81 48
-40 170 -138 256 -204 39 -30 75 -58 80 -63 81 -68 597 -422 712 -488 15 -10
87 -52 158 -94 701 -417 1460 -738 2270 -961 88 -24 169 -46 180 -48 11 -3 88
-20 170 -39 139 -32 241 -53 455 -91 47 -9 103 -18 125 -21 23 -3 50 -7 60 -9
11 -2 45 -7 75 -11 30 -4 64 -9 75 -11 11 -2 44 -6 73 -10 29 -3 63 -7 75 -10
12 -2 45 -7 72 -10 28 -3 59 -7 71 -9 11 -3 45 -7 75 -10 30 -4 77 -10 104
-14 28 -5 84 -9 125 -10 272 -7 371 -12 415 -20 48 -9 362 -7 455 3 25 3 115
8 200 11 243 9 355 18 490 40 66 11 89 14 139 20 30 4 61 8 70 10 9 1 43 6 76
9 33 4 72 9 86 11 14 3 41 7 60 9 19 3 66 10 104 16 39 7 84 14 100 17 28 4
355 69 400 79 11 2 67 15 125 29 58 14 116 27 130 30 56 12 393 109 515 147
72 23 135 43 140 44 37 8 392 139 545 201 692 280 1314 621 1915 1051 77 56
145 104 150 109 6 5 48 38 95 73 74 56 366 297 455 375 214 188 727 709 837
851 13 16 30 36 39 44 21 20 141 165 260 315 363 457 669 935 912 1420 184
369 347 716 347 740 0 3 9 24 19 48 49 108 240 657 306 877 28 95 87 312 100
370 15 63 58 265 66 305 19 94 46 241 55 299 3 21 8 48 10 60 2 11 7 39 10 61
2 22 7 51 9 65 2 14 6 39 9 55 3 17 8 50 11 74 3 23 7 55 9 70 3 14 7 49 11
76 8 71 15 125 20 165 3 19 8 62 11 95 3 33 8 67 9 75 5 24 14 157 21 285 3
66 7 138 10 160 9 94 13 466 5 535 -5 41 -12 136 -15 210 -4 74 -8 155 -11
180 -2 25 -7 79 -10 120 -3 41 -7 89 -9 105 -2 17 -7 62 -11 100 -3 39 -8 81
-10 95 -2 14 -11 81 -20 150 -13 103 -41 279 -80 500 -92 522 -347 1368 -561
1858 -8 17 -21 47 -29 65 -8 18 -30 69 -48 113 -239 552 -620 1207 -1005 1724
-286 384 -431 550 -832 950 -406 406 -599 583 -845 775 -50 38 -95 74 -101 80
-6 5 -37 28 -68 50 -32 22 -94 67 -139 99 -95 69 -416 286 -497 336 -116 71
-264 160 -267 160 -2 0 -21 11 -43 25 -22 14 -71 42 -108 61 -37 20 -96 52
-132 72 -81 44 -289 148 -395 197 -71 33 -108 50 -220 100 -378 169 -1092 413
-1435 490 -8 2 -71 17 -140 34 -69 16 -159 37 -200 45 -112 22 -289 55 -335
61 -75 11 -280 41 -335 50 -41 6 -102 14 -155 20 -27 3 -57 8 -65 10 -8 2 -37
6 -65 9 -100 11 -153 16 -206 21 -30 2 -83 7 -119 10 -176 15 -237 17 -527 19
-172 2 -314 2 -315 1z m550 -549 c35 -3 66 -7 70 -10 4 -2 48 -7 97 -10 50 -4
108 -9 130 -11 22 -2 83 -7 136 -10 53 -3 107 -8 120 -10 13 -2 47 -6 74 -10
28 -3 64 -8 80 -10 50 -8 108 -15 150 -21 43 -5 225 -31 265 -38 59 -11 107
-18 140 -22 19 -2 55 -8 80 -13 25 -5 63 -12 85 -16 92 -13 95 -15 95 -45 0
-26 -3 -29 -52 -35 -78 -10 -105 -14 -193 -30 -44 -8 -93 -17 -110 -20 -16 -2
-41 -7 -55 -10 -14 -3 -36 -8 -50 -11 -14 -3 -86 -21 -160 -40 -597 -156
-1284 -451 -1905 -821 -242 -144 -601 -384 -820 -548 -82 -62 -175 -126 -205
-143 l-55 -31 -145 4 c-80 2 -179 8 -220 14 -41 5 -109 13 -150 17 -41 3 -77
8 -80 9 -30 18 -1275 27 -1490 11 -151 -11 -338 -31 -465 -51 -22 -3 -53 -7
-70 -10 -106 -14 -359 -60 -462 -85 -47 -11 -97 -22 -111 -25 -110 -19 -523
-146 -720 -221 -80 -30 -109 -37 -100 -26 29 38 189 189 284 268 85 71 389
303 464 354 12 8 50 36 84 61 88 66 439 299 450 299 3 0 36 20 73 44 151 97
633 354 836 445 232 105 584 251 604 251 3 0 19 7 36 15 36 17 500 171 537
179 14 3 41 10 60 16 65 21 365 97 525 134 111 25 336 69 409 80 21 4 48 8 60
11 12 2 44 7 71 10 28 3 57 8 65 10 8 2 38 6 65 10 28 3 84 10 125 15 122 16
148 19 338 35 31 2 95 7 142 10 79 5 105 8 192 21 18 2 83 7 143 11 61 3 111
6 113 8 4 4 354 -4 420 -9z m2504 -900 c59 -3 113 -8 120 -10 7 -3 40 -7 73
-10 52 -5 100 -13 190 -30 48 -9 105 -18 107 -16 2 1 16 -3 31 -9 15 -6 41
-13 56 -16 89 -16 301 -85 500 -164 87 -35 262 -125 373 -192 91 -55 234 -153
248 -169 3 -3 41 -33 85 -65 85 -63 239 -211 322 -310 73 -88 305 -400 348
-471 255 -413 423 -828 565 -1402 42 -169 63 -278 80 -412 12 -94 15 -119 35
-297 4 -27 10 -70 15 -98 15 -83 19 -142 21 -332 1 -100 5 -201 10 -225 21
-106 24 -129 24 -223 0 -55 -8 -152 -18 -215 -11 -71 -18 -180 -19 -282 -1
-93 -5 -168 -9 -168 -4 0 -115 107 -246 238 -237 235 -424 411 -578 545 -16
14 -41 35 -55 47 -14 13 -81 70 -150 128 -69 59 -127 109 -130 112 -3 3 -93
76 -200 161 -577 460 -1078 805 -1685 1159 -80 46 -118 68 -230 130 -16 9 -75
40 -130 70 -55 29 -136 74 -180 100 -115 67 -338 178 -500 250 -171 76 -354
158 -376 170 -34 18 -404 172 -559 233 -492 193 -1033 366 -1539 492 -95 24
-175 46 -178 48 -7 8 124 114 216 176 98 66 184 116 321 189 52 27 128 68 169
91 41 23 75 41 77 41 1 0 35 19 76 43 250 148 749 357 1128 472 133 40 383
106 455 118 17 3 41 8 55 11 111 25 344 61 460 72 41 3 77 8 80 9 3 2 69 7
145 10 77 4 141 8 142 9 3 3 132 -2 255 -8z m3621 -2027 c21 -26 51 -59 66
-75 109 -115 524 -663 616 -815 6 -10 53 -86 106 -170 102 -162 209 -344 278
-469 79 -142 300 -595 359 -736 61 -143 204 -524 260 -689 46 -135 145 -469
156 -525 3 -14 21 -88 40 -165 30 -124 45 -192 61 -275 3 -14 11 -59 20 -100
18 -94 62 -359 70 -425 3 -27 12 -95 20 -150 8 -55 17 -134 21 -175 3 -41 8
-78 10 -81 2 -3 6 -57 9 -120 13 -283 15 -326 19 -349 2 -14 7 -61 11 -105 4
-44 9 -96 11 -115 5 -45 5 -287 0 -321 -2 -14 -9 -50 -14 -80 -6 -30 -14 -112
-18 -184 -9 -196 -18 -296 -39 -462 -2 -21 -7 -60 -10 -88 -3 -27 -7 -61 -10
-75 -2 -14 -7 -49 -10 -79 -4 -30 -8 -61 -10 -70 -1 -9 -6 -38 -9 -66 -4 -27
-11 -76 -17 -108 -6 -32 -12 -70 -14 -85 -2 -15 -14 -89 -26 -164 -20 -129
-23 -137 -46 -143 -14 -3 -27 -5 -28 -3 -2 2 -6 30 -9 63 -4 33 -9 67 -11 75
-2 8 -6 38 -10 65 -21 176 -115 512 -257 920 -44 127 -86 244 -93 260 -7 17
-31 73 -53 125 -254 606 -675 1333 -1069 1845 -24 30 -114 166 -136 205 -26
45 -26 47 -22 210 2 91 7 183 9 205 8 61 16 135 22 190 2 28 6 59 9 70 13 66
18 250 18 759 0 506 -4 675 -18 781 -2 17 -7 61 -10 99 -4 38 -9 79 -10 90 -2
12 -6 44 -9 71 -11 102 -32 243 -61 400 -14 72 -27 148 -31 170 -3 22 -8 43
-10 46 -2 3 -13 48 -24 100 -55 251 -147 556 -244 813 l-27 70 63 -60 c35 -32
80 -80 101 -105z m-9318 9 c5 -5 -6 -17 -164 -187 -53 -57 -103 -112 -111
-121 -8 -9 -58 -63 -110 -120 -52 -57 -103 -112 -113 -124 -10 -12 -49 -55
-87 -96 -63 -70 -209 -247 -272 -332 -15 -20 -33 -42 -40 -50 -40 -42 -359
-467 -499 -665 -366 -515 -591 -881 -937 -1523 -19 -36 -47 -87 -62 -115 -57
-103 -179 -353 -218 -445 -22 -52 -61 -140 -87 -195 -26 -55 -68 -149 -95
-210 -26 -60 -56 -130 -68 -155 -150 -331 -445 -1168 -542 -1539 -6 -24 -16
-55 -21 -69 l-10 -25 -25 24 c-76 71 -349 566 -509 924 -113 252 -274 713
-345 988 -87 335 -107 530 -105 1016 2 348 5 403 31 519 7 34 16 74 19 90 3
15 12 54 20 87 9 33 18 69 20 81 8 34 55 174 82 244 92 239 235 488 387 677
76 94 294 316 406 413 41 36 80 70 86 75 6 6 42 32 80 60 377 272 897 502
1394 615 46 11 277 57 315 63 167 28 347 57 375 61 98 13 126 18 139 22 8 2
46 7 85 11 39 3 72 6 73 7 5 4 905 -2 908 -6z m1047 -102 c57 -5 131 -14 178
-22 14 -3 77 -13 140 -24 469 -80 977 -217 1649 -444 376 -128 793 -299 1261
-518 113 -53 424 -209 495 -248 28 -15 95 -51 150 -80 55 -29 117 -64 137 -77
21 -13 40 -23 43 -23 2 0 34 -18 70 -40 36 -22 67 -40 70 -40 6 0 310 -184
445 -270 132 -83 452 -299 543 -365 220 -161 596 -443 607 -455 3 -3 61 -50
130 -105 69 -55 127 -103 130 -106 3 -3 43 -38 90 -78 410 -350 817 -754 1182
-1171 31 -36 67 -78 79 -95 13 -16 30 -37 39 -45 22 -22 103 -120 127 -155 28
-42 36 -84 23 -136 -6 -24 -13 -55 -16 -69 -3 -14 -19 -79 -35 -145 -17 -66
-32 -127 -34 -135 -11 -43 -68 -250 -100 -360 -20 -69 -40 -138 -45 -155 -4
-16 -32 -102 -61 -190 -29 -88 -54 -164 -55 -170 -3 -16 -144 -408 -154 -430
-5 -11 -43 -106 -84 -212 -75 -189 -220 -525 -311 -718 -77 -164 -273 -553
-300 -595 -14 -22 -25 -42 -25 -46 0 -5 -37 -73 -130 -239 -10 -16 -48 -82
-85 -145 -37 -63 -79 -135 -92 -160 -14 -25 -31 -52 -37 -60 -7 -8 -29 -44
-51 -80 -37 -62 -117 -186 -270 -420 -38 -58 -73 -109 -77 -115 -5 -5 -56 -77
-114 -160 -93 -131 -321 -439 -349 -471 -5 -7 -22 -27 -36 -45 -127 -160 -380
-465 -470 -564 -20 -22 -56 -63 -80 -91 -24 -29 -218 -226 -431 -440 l-387
-388 -53 3 c-46 2 -139 15 -268 37 -19 3 -75 14 -125 25 -49 11 -101 22 -115
25 -85 17 -311 66 -345 75 -59 14 -77 19 -105 24 -14 3 -59 14 -100 25 -41 12
-82 22 -90 24 -42 11 -288 81 -385 111 -491 151 -1137 396 -1525 579 -85 41
-189 88 -230 106 -151 66 -308 144 -452 226 -80 46 -149 84 -152 84 -15 0
-498 282 -731 428 -390 243 -873 585 -1200 848 -57 46 -112 90 -122 98 -33 27
-228 190 -233 196 -3 3 -43 38 -90 79 -297 258 -617 572 -901 882 -48 52 -97
106 -110 122 -13 15 -40 45 -59 66 -19 20 -53 59 -75 86 -22 27 -73 87 -113
134 -41 48 -79 97 -84 111 -26 63 -2 189 127 665 78 289 304 976 364 1110 5
11 33 81 61 155 60 155 210 509 276 648 24 52 44 96 44 98 0 7 268 542 295
589 12 22 39 72 60 110 109 203 337 589 463 785 73 114 226 344 232 350 3 3
25 34 49 70 67 98 214 300 313 433 87 114 325 417 337 427 4 3 26 30 51 60 25
30 49 60 55 66 5 6 30 36 55 65 40 48 117 136 130 149 3 3 25 28 49 55 161
181 279 305 545 568 342 338 318 315 331 311 6 -2 36 -5 67 -8z m-6471 -3738
c1 -30 6 -60 30 -198 12 -63 23 -128 26 -145 20 -125 126 -489 211 -730 77
-217 250 -636 343 -830 124 -261 400 -734 608 -1040 73 -108 253 -362 298
-420 13 -16 27 -34 31 -40 26 -33 72 -106 90 -141 19 -36 20 -55 18 -180 -2
-76 -6 -159 -10 -184 -7 -50 -13 -107 -21 -195 -4 -33 -8 -65 -10 -72 -26 -78
-26 -1455 -1 -1613 3 -14 7 -57 10 -95 4 -39 8 -81 10 -95 3 -14 10 -68 16
-120 7 -52 14 -104 16 -115 2 -10 6 -37 9 -60 3 -22 8 -51 10 -65 3 -14 7 -40
10 -59 52 -317 194 -833 305 -1109 22 -53 38 -98 36 -99 -6 -6 -192 194 -292
313 -174 207 -523 681 -609 826 -5 9 -45 74 -89 144 -143 231 -256 435 -386
699 -218 442 -359 789 -501 1235 -61 188 -175 611 -169 622 1 2 -3 16 -9 31
-6 15 -13 42 -16 60 -3 18 -12 59 -20 92 -7 33 -16 80 -20 105 -4 24 -8 47
-10 50 -3 4 -30 151 -40 215 -21 137 -42 286 -50 350 -3 28 -8 66 -11 85 -2
19 -7 62 -9 95 -3 33 -7 85 -10 115 -7 76 -14 170 -20 270 -4 79 -11 138 -21
200 -17 102 -22 344 -10 510 6 90 8 109 22 190 3 19 7 69 9 110 7 137 15 265
20 300 2 19 7 64 11 100 3 36 7 72 9 80 1 8 6 42 9 75 4 33 9 71 11 85 4 25
15 96 20 135 1 11 5 34 8 50 3 17 9 50 12 75 7 56 13 93 25 150 5 25 12 61 14
80 3 19 7 44 10 55 2 11 7 39 11 63 5 31 13 46 28 52 33 13 37 12 38 -12z
m14742 -1633 c23 -38 44 -72 47 -75 4 -3 26 -41 51 -85 24 -44 48 -88 54 -97
18 -31 240 -473 252 -503 7 -17 22 -52 35 -80 12 -27 23 -52 23 -55 1 -3 9
-22 18 -44 29 -67 144 -369 161 -426 10 -30 22 -64 27 -75 30 -65 158 -600
173 -725 3 -25 8 -55 10 -68 16 -79 21 -185 21 -497 0 -192 -3 -375 -7 -405
-4 -30 -10 -75 -13 -100 -5 -41 -31 -182 -41 -220 -124 -508 -351 -914 -714
-1279 -373 -374 -810 -629 -1425 -832 -130 -43 -372 -108 -500 -134 -44 -9
-89 -19 -100 -21 -40 -9 -272 -43 -330 -49 -33 -4 -71 -8 -85 -10 -14 -2 -45
-7 -70 -10 -25 -3 -52 -8 -60 -10 -21 -5 -127 -16 -245 -24 -89 -7 -824 -5
-831 2 -1 1 18 25 43 52 25 28 77 86 116 129 40 44 85 93 100 110 67 73 90 99
218 246 74 85 184 214 243 285 59 72 117 140 127 153 40 47 306 389 329 422
13 19 27 37 30 40 3 3 33 43 65 89 33 46 81 114 107 150 138 194 477 712 551
841 11 19 27 47 36 61 50 83 288 501 340 599 274 513 567 1156 737 1615 24 66
49 129 53 140 41 90 225 643 296 890 21 72 40 134 43 139 8 14 68 -59 115
-139z m-12078 -3040 c138 -137 269 -266 291 -285 56 -48 194 -171 215 -192 47
-45 466 -391 629 -519 456 -357 1118 -809 1520 -1037 19 -11 76 -43 125 -72
122 -71 191 -109 355 -197 168 -90 208 -112 260 -143 30 -18 112 -61 183 -96
114 -58 213 -102 687 -311 272 -120 526 -215 1030 -384 345 -117 622 -204 735
-231 22 -5 47 -11 55 -14 13 -3 40 -9 165 -39 11 -3 54 -12 95 -21 l74 -17
-34 -30 c-120 -102 -329 -243 -530 -356 -127 -72 -735 -373 -855 -424 -193
-82 -553 -207 -695 -242 -8 -2 -77 -20 -154 -39 -76 -19 -153 -37 -170 -40
-17 -3 -60 -12 -96 -20 -101 -23 -241 -46 -316 -51 -38 -3 -85 -7 -104 -10
-19 -3 -55 -7 -80 -9 -25 -3 -92 -10 -150 -16 -155 -17 -316 -15 -430 5 -24 4
-53 7 -167 20 -27 3 -64 8 -83 10 -19 3 -60 7 -90 10 -30 3 -62 8 -70 10 -8 2
-31 7 -50 10 -185 31 -468 126 -690 233 -138 67 -402 224 -473 282 -7 5 -68
54 -137 109 -117 92 -236 205 -312 296 -18 21 -40 46 -48 55 -9 9 -29 34 -45
55 -17 22 -33 42 -36 45 -16 14 -195 272 -231 334 -23 39 -47 78 -54 86 -7 8
-52 94 -101 190 -117 229 -220 475 -288 690 -29 94 -75 246 -80 270 -2 8 -17
71 -33 140 -35 143 -41 171 -62 290 -5 30 -12 70 -15 88 -3 17 -7 44 -10 60
-6 36 -23 155 -29 212 -15 118 -18 147 -22 170 -3 14 -7 79 -9 145 -8 204 -14
303 -24 347 -23 104 -30 295 -17 426 3 26 8 76 12 112 3 36 7 72 9 81 4 20 16
167 20 254 2 39 4 72 4 74 1 7 52 -42 326 -314z m11444 -3412 c-39 -50 -100
-104 -304 -272 -120 -99 -296 -237 -409 -320 -163 -122 -501 -351 -516 -351
-5 0 -10 -4 -10 -10 0 -5 -5 -10 -11 -10 -6 0 -29 -13 -52 -29 -69 -46 -286
-172 -462 -266 -103 -55 -441 -225 -448 -225 -3 0 -38 -15 -79 -34 -98 -46
-357 -153 -493 -204 -202 -75 -300 -110 -330 -118 -16 -4 -34 -9 -40 -13 -5
-3 -14 -6 -20 -7 -5 -1 -62 -19 -125 -38 -63 -20 -124 -38 -135 -41 -11 -2
-94 -24 -185 -49 -91 -24 -219 -56 -285 -70 -66 -15 -158 -35 -205 -46 -126
-28 -439 -81 -560 -94 -19 -3 -62 -7 -95 -11 -33 -3 -71 -8 -85 -10 -14 -2
-52 -7 -85 -11 -33 -3 -73 -8 -90 -10 -16 -2 -68 -6 -115 -9 -222 -12 -283
-16 -313 -20 -31 -4 -143 -14 -222 -21 -72 -6 -339 -6 -375 0 -112 20 -157 25
-265 31 -200 11 -304 19 -395 30 -19 3 -62 7 -95 11 -33 3 -71 7 -85 9 -14 3
-74 11 -135 20 -165 24 -162 23 -285 44 -272 47 -295 52 -307 68 -21 28 -15
43 17 44 17 1 33 2 38 3 4 1 36 6 72 11 36 5 67 9 70 10 3 1 25 5 50 9 357 61
1003 281 1510 513 75 34 453 223 465 233 6 4 46 26 90 50 155 83 425 247 625
379 132 87 177 119 350 252 152 116 243 179 273 186 40 9 311 11 387 2 103
-11 154 -17 230 -24 36 -4 76 -8 90 -11 154 -24 1377 -24 1453 1 6 2 46 6 87
10 65 5 122 11 280 30 172 21 437 67 610 107 74 17 140 31 145 33 99 20 395
110 570 172 93 33 117 42 185 71 34 14 34 14 19 -5z"/>
<path d="M13080 12107 c-5 -5 -58 -10 -195 -22 -147 -12 -193 -16 -225 -20
-19 -2 -62 -6 -95 -9 -33 -3 -89 -8 -125 -11 -36 -3 -76 -8 -90 -10 -14 -2
-61 -7 -105 -10 -44 -4 -91 -8 -105 -10 -14 -1 -59 -6 -100 -10 -41 -4 -86 -9
-100 -10 -103 -9 -187 -18 -201 -20 -8 -2 -51 -6 -95 -10 -43 -3 -90 -8 -104
-10 -14 -2 -56 -6 -95 -9 -38 -4 -86 -8 -105 -11 -38 -5 -129 -14 -200 -20
-25 -3 -63 -7 -85 -9 -22 -3 -67 -8 -100 -11 -33 -3 -78 -8 -100 -10 -22 -3
-67 -7 -100 -10 -33 -3 -76 -8 -95 -10 -19 -2 -66 -7 -105 -11 -38 -3 -78 -8
-87 -9 -9 -2 -57 -7 -105 -10 -48 -4 -95 -9 -103 -10 -8 -2 -53 -6 -100 -10
-47 -4 -92 -8 -100 -10 -8 -2 -49 -6 -90 -9 -41 -4 -91 -9 -110 -11 -35 -4
-107 -11 -205 -20 -27 -2 -72 -6 -100 -9 -27 -3 -79 -8 -115 -11 -36 -3 -87
-10 -115 -15 -27 -5 -72 -12 -100 -15 -47 -6 -80 -8 -338 -20 -60 -3 -123 -7
-140 -10 -54 -9 -131 -24 -157 -30 -14 -4 -31 -7 -37 -7 -7 -1 -13 -4 -13 -8
0 -10 120 -138 283 -304 162 -164 213 -219 267 -287 19 -24 110 -119 203 -212
92 -92 167 -169 167 -172 0 -5 -483 -284 -802 -463 -20 -11 -83 -49 -140 -84
-57 -34 -195 -115 -308 -178 -113 -64 -297 -170 -410 -235 -214 -123 -343
-194 -397 -219 -32 -15 -35 -30 -13 -61 4 -5 38 -64 75 -130 109 -194 113
-202 218 -385 85 -149 232 -397 243 -409 7 -8 137 61 294 155 91 54 174 104
185 110 230 130 353 200 478 273 84 49 168 98 187 109 19 11 103 59 185 107
83 48 200 115 260 150 164 92 181 102 299 172 97 57 204 109 211 101 7 -7 186
-642 200 -708 7 -34 99 -353 132 -462 20 -64 41 -114 45 -111 5 3 83 105 174
226 90 122 167 227 171 232 5 6 37 51 72 100 36 50 121 167 191 260 69 94 163
224 210 290 46 66 180 253 299 415 495 678 650 892 726 1005 23 33 134 184
246 335 360 483 603 824 597 841 -2 6 -6 8 -8 6z"/>
</g>
</svg>
